<?xml version="1.0" encoding="utf-8"?>
<!-- Generator: Adobe Illustrator 26.0.3, SVG Export Plug-In . SVG Version: 6.00 Build 0)  -->
<svg version="1.1" id="Layer_1" xmlns="http://www.w3.org/2000/svg" xmlns:xlink="http://www.w3.org/1999/xlink" x="0px" y="0px"
	 viewBox="0 0 1000 500" style="enable-background:new 0 0 1000 500;" xml:space="preserve">
<style type="text/css">
	.st0{fill:#010202;}
	.st1{clip-path:url(#SVGID_00000122718213632397542510000001042458591246551474_);fill:#020203;}
</style>
<g>
	<g>
		<path class="st0" d="M452.7,292.5l25.6-77.8h27.3l-37.5,101.4H437l-37.3-101.4h27.4L452.7,292.5z"/>
		<path class="st0" d="M613.5,273.2h-74.1c0.6,7.3,3.2,13.1,7.7,17.2c4.5,4.1,10.1,6.2,16.7,6.2c9.5,0,16.3-4.1,20.3-12.3h27.6
			c-2.9,9.8-8.5,17.8-16.8,24.1c-8.3,6.3-18.5,9.4-30.6,9.4c-9.8,0-18.5-2.2-26.3-6.5c-7.7-4.3-13.8-10.5-18.1-18.4
			c-4.3-7.9-6.5-17.1-6.5-27.4c0-10.5,2.1-19.7,6.4-27.6c4.3-7.9,10.2-14,17.9-18.3c7.7-4.3,16.5-6.4,26.5-6.4
			c9.6,0,18.3,2.1,25.9,6.2c7.6,4.1,13.5,10,17.7,17.7c4.2,7.6,6.3,16.4,6.3,26.3C614.3,266.9,614,270.2,613.5,273.2z M587.7,256
			c-0.1-6.6-2.5-11.9-7.1-15.8c-4.6-4-10.3-5.9-17-5.9c-6.3,0-11.7,1.9-16,5.8c-4.3,3.8-7,9.2-8,16H587.7z"/>
		<path class="st0" d="M671.5,217.9c5.3-3,11.4-4.6,18.2-4.6v26.9h-6.8c-8.1,0-14.1,1.9-18.2,5.7c-4.1,3.8-6.1,10.4-6.1,19.8v50.5
			h-25.6V214.8h25.6v15.7C661.9,225.2,666.2,220.9,671.5,217.9z"/>
		<path class="st0" d="M723.3,313.3c-6.6-3-11.8-7-15.6-12.2c-3.8-5.1-5.9-10.8-6.3-17h25.8c0.5,3.9,2.4,7.1,5.8,9.7
			c3.4,2.6,7.5,3.8,12.5,3.8c4.9,0,8.7-1,11.4-2.9c2.7-2,4.1-4.5,4.1-7.5c0-3.3-1.7-5.8-5-7.4c-3.4-1.6-8.7-3.4-16-5.4
			c-7.6-1.8-13.8-3.7-18.6-5.7c-4.8-2-9-4.9-12.4-9c-3.5-4-5.2-9.5-5.2-16.3c0-5.6,1.6-10.7,4.8-15.4c3.2-4.6,7.9-8.3,13.9-11
			c6-2.7,13.1-4,21.3-4c12.1,0,21.7,3,28.9,9.1c7.2,6,11.2,14.2,11.9,24.4h-24.5c-0.4-4-2-7.2-5-9.6c-3-2.4-7-3.6-12-3.6
			c-4.6,0-8.2,0.9-10.7,2.6c-2.5,1.7-3.8,4.1-3.8,7.1c0,3.4,1.7,6,5.1,7.8c3.4,1.8,8.7,3.6,15.9,5.4c7.3,1.8,13.4,3.7,18.1,5.7
			c4.8,2,8.9,5,12.4,9.1c3.5,4.1,5.3,9.5,5.4,16.2c0,5.9-1.6,11.1-4.8,15.7c-3.2,4.6-7.9,8.3-13.9,10.9c-6,2.6-13.1,3.9-21.1,3.9
			C737.4,317.8,729.9,316.3,723.3,313.3z"/>
		<path class="st0" d="M900.1,273.2H826c0.6,7.3,3.2,13.1,7.7,17.2c4.5,4.1,10.1,6.2,16.7,6.2c9.5,0,16.3-4.1,20.3-12.3h27.6
			c-2.9,9.8-8.5,17.8-16.8,24.1c-8.3,6.3-18.5,9.4-30.6,9.4c-9.8,0-18.5-2.2-26.3-6.5c-7.7-4.3-13.8-10.5-18.1-18.4
			c-4.3-7.9-6.5-17.1-6.5-27.4c0-10.5,2.1-19.7,6.4-27.6c4.3-7.9,10.2-14,17.9-18.3c7.7-4.3,16.5-6.4,26.5-6.4
			c9.6,0,18.3,2.1,25.9,6.2c7.6,4.1,13.5,10,17.7,17.7c4.2,7.6,6.3,16.4,6.3,26.3C900.8,266.9,900.6,270.2,900.1,273.2z M874.3,256
			c-0.1-6.6-2.5-11.9-7.1-15.8c-4.6-4-10.3-5.9-17-5.9c-6.3,0-11.7,1.9-16,5.8c-4.3,3.8-7,9.2-8,16H874.3z"/>
	</g>
</g>
<g>
	<defs>
		<rect id="SVGID_1_" x="76.7" y="46.5" width="845" height="422.5"/>
	</defs>
	<clipPath id="SVGID_00000085941864928706334030000004292270964946953395_">
		<use xlink:href="#SVGID_1_"  style="overflow:visible;"/>
	</clipPath>
	<path style="clip-path:url(#SVGID_00000085941864928706334030000004292270964946953395_);fill:#020203;" d="M405.4,212.1
		c-19.7-88.8-116.6-142.2-202.4-111.8C127.7,126.9,83,205.1,98.1,283.5c16.1,83.2,99.2,137.3,181.9,118.8
		c34.7-7.7,61.8-26.9,82.7-54.8c28.3-37.6,42.1-79.6,28-126.1c-21.5-70.9-113.5-104.3-176.1-58.1c-37,27.3-51.4,64.8-43.5,109.6
		c7.6,43,35.2,69.2,76.2,81.9c12.7,3.9,26.1,3.8,39.3,4.6c-24.3,9-48.8,9.5-72.3-1.7c-42.8-20.3-64.2-55.5-66.7-102.1
		c-4.1-74.7,55.1-134.5,129-128.6c59.6,4.8,100.8,37,124.4,91.8c2.1,4.8,3.6,9.8,6.2,16.8C408.5,226,406.9,219,405.4,212.1
		 M245.3,315.9h-25.4V189.1h25.4V315.9z M270.4,315.9V189.1h46.7c9.8,0,18.2,1.7,25.1,5.1c6.9,3.4,12.1,8.1,15.5,14
		c3.5,5.9,5.2,12.7,5.2,20.2c0,6.8-1.6,13.1-4.8,19.1c-3.2,5.9-8.2,10.7-15.1,14.4c-6.8,3.6-15.5,5.5-25.9,5.5h-21.3v48.7H270.4z
		 M331.6,241.9c3.4-3.2,5.1-7.7,5.1-13.5c0-12.4-6.9-18.5-20.7-18.5h-20.2v36.9H316C323,246.7,328.2,245.1,331.6,241.9"/>
</g>
<g>
</g>
<g>
</g>
<g>
</g>
<g>
</g>
<g>
</g>
<g>
</g>
</svg>
