<?xml version="1.0" encoding="utf-8"?>
<!-- Generator: Adobe Illustrator 26.0.3, SVG Export Plug-In . SVG Version: 6.00 Build 0)  -->
<svg version="1.1" id="Layer_1" xmlns="http://www.w3.org/2000/svg" xmlns:xlink="http://www.w3.org/1999/xlink" x="0px" y="0px"
	 viewBox="0 0 1000 1000" style="enable-background:new 0 0 1000 1000;" xml:space="preserve">
<style type="text/css">
	.st0{fill:#020203;}
</style>
<path class="st0" d="M891.1,406.7C840.9,181.2,594.8,45.4,376.7,122.5C185.4,190.2,71.8,388.8,110.4,588.1
	C151.3,799.5,362.4,937,572.7,890c88.1-19.7,157.1-68.4,210.2-139.1c71.8-95.5,107-202.2,71.1-320.5
	c-54.6-180.2-288.4-265.1-447.5-147.7C312.5,352,275.8,447.3,296,561.1c19.4,109.2,89.4,175.9,193.6,208.1
	c32.4,10,66.4,9.7,100,11.8c-61.8,22.9-124,24.1-183.6-4.3c-108.6-51.6-163-140.9-169.5-259.5c-10.4-189.8,140-341.8,327.8-326.7
	c151.5,12.1,256.2,94,316,233.3c5.2,12.1,9.2,24.8,15.7,42.7C899.1,442,895,424.2,891.1,406.7 M484.4,670.5h-64.6V348.2h64.6V670.5z
	 M548.1,670.5V348.2h118.7c24.9,0,46.2,4.3,63.7,12.9c17.5,8.6,30.7,20.5,39.5,35.5c8.8,15.1,13.2,32.2,13.2,51.2
	c0,17.2-4.1,33.4-12.2,48.5c-8.2,15.1-20.9,27.2-38.3,36.5c-17.4,9.2-39.3,13.9-65.8,13.9h-54v123.7H548.1z M703.7,482.3
	c8.6-8.2,12.9-19.6,12.9-34.4c0-31.4-17.5-47.1-52.6-47.1h-51.2v93.7H664C681.9,494.6,695.1,490.5,703.7,482.3"/>
<g>
</g>
<g>
</g>
<g>
</g>
<g>
</g>
<g>
</g>
<g>
</g>
</svg>
